#!OML:ASF H:\Dans Jumps\Project 1\Capture day 1\Session 1\subject.ASF
:FULLY-SPECIFIED
:DEGREES
129
root 0.385009 14.6138 4.48729 1.67434 -3.36081 -2.12242
lowerback 14.1313 0.203957 0.96777
upperback 9.33029 0.351955 1.9109
thorax 1.91363 0.153992 1.40763
lowerneck -11.5576 -0.162413 -1.93801
upperneck -7.98222 0.0535029 1.92465
head -0.578722 0.0781654 0.915585
rclavicle 3.97569e-016 0
rhumerus 41.2828 7.34795 -31.7058
rradius 67.8524
rwrist 21.7315
rhand -23.5378 -37.6251
rfingers 7.12502
rthumb 2.92377 -67.5848
lclavicle 3.97569e-016 0
lhumerus 44.3876 -6.80655 36.1932
lradius 66.0212
lwrist 6.07503
lhand -31.8313 -3.28514
lfingers 7.12502
lthumb -5.08582 26.6338
rfemur -43.1885 -11.304 15.0448
rtibia 77.3933
rfoot -31.6259 -5.91276
rtoes -12.4946
lfemur -40.4005 16.6022 -11.8492
ltibia 77.3044
lfoot -30.2652 14.2161
ltoes -12.6818
130
root 0.383985 14.6131 4.48712 1.67304 -3.37498 -2.12449
lowerback 14.1356 0.210397 0.954875
upperback 9.33035 0.359015 1.91752
thorax 1.91117 0.156734 1.42094
lowerneck -11.5743 -0.167174 -1.92294
upperneck -7.97721 0.0447596 1.89901
head -0.574408 0.0733519 0.904731
rclavicle -3.18055e-015 -1.03368e-014
rhumerus 41.3106 7.34773 -31.7143
rradius 67.8263
rwrist 21.7459
rhand -23.5233 -37.6561
rfingers 7.12502
rthumb 2.93773 -67.6157
lclavicle -3.18055e-015 -1.03368e-014
lhumerus 44.3561 -6.79481 36.1944
lradius 66.052
lwrist 6.05526
lhand -31.9173 -3.37071
lfingers 7.12502
lthumb -5.16892 26.5463
rfemur -43.1922 -11.2903 15.0521
rtibia 77.4039
rfoot -31.5982 -5.91731
rtoes -12.3853
lfemur -40.4051 16.6318 -11.8429
ltibia 77.3139
lfoot -30.259 14.2325
ltoes -12.7744
131
root 0.383444 14.6122 4.48659 1.68138 -3.37163 -2.13832
lowerback 14.147 0.209784 0.975303
upperback 9.31713 0.361016 1.91646
thorax 1.89116 0.158698 1.40797
lowerneck -11.5709 -0.159164 -1.95764
upperneck -7.95284 0.0604054 1.93643
head -0.567489 0.0822846 0.922842
rclavicle -2.18663e-015 -1.15295e-014
rhumerus 41.2912 7.35642 -31.7095
rradius 67.829
rwrist 21.734
rhand -23.5234 -37.648
rfingers 7.12502
rthumb 2.93765 -67.6075
lclavicle -2.18663e-015 -1.15295e-014
lhumerus 44.3832 -6.79328 36.1789
lradius 66.0449
lwrist 6.06537
lhand -31.8647 -3.41739
lfingers 7.12502
lthumb -5.1181 26.5008
rfemur -43.2073 -11.2913 15.0719
rtibia 77.4145
rfoot -31.6131 -5.91033
rtoes -12.3655
lfemur -40.4265 16.6333 -11.828
ltibia 77.326
lfoot -30.2677 14.2233
ltoes -12.7246
132
root 0.383015 14.6105 4.48652 1.68284 -3.37575 -2.14104
lowerback 14.1722 0.213056 0.978496
upperback 9.30325 0.36651 1.91548
thorax 1.86287 0.161632 1.4043
lowerneck -11.5405 -0.158529 -1.91612
upperneck -7.98079 0.0551104 1.89799
head -0.581071 0.0782587 0.903499
rclavicle 8.54774e-015 0
rhumerus 41.3058 7.37353 -31.6977
rradius 67.824
rwrist 21.7303
rhand -23.496 -37.6867
rfingers 7.12502
rthumb 2.96407 -67.6458
lclavicle 8.54774e-015 0
lhumerus 44.3842 -6.80848 36.1614
lradius 66.0295
lwrist 5.99278
lhand -31.8466 -3.25492
lfingers 7.12502
lthumb -5.10058 26.6637
rfemur -43.2226 -11.2883 15.0787
rtibia 77.4306
rfoot -31.6166 -5.91341
rtoes -12.4
lfemur -40.4329 16.6385 -11.8176
ltibia 77.3406
lfoot -30.2923 14.1726
ltoes -12.6532
133
root 0.383001 14.6094 4.48658 1.67453 -3.38868 -2.13355
lowerback 14.1577 0.217296 0.971567
upperback 9.32399 0.37044 1.91471
thorax 1.8926 0.163254 1.40711
lowerneck -11.581 -0.15851 -1.92328
upperneck -7.95992 0.0562441 1.89406
head -0.56815 0.0791946 0.90357
rclavicle -1.78906e-015 -1.43125e-014
rhumerus 41.3218 7.35025 -31.6944
rradius 67.8279
rwrist 21.721
rhand -23.5182 -37.7135
rfingers 7.12502
rthumb 2.94265 -67.673
lclavicle -1.78906e-015 -1.43125e-014
lhumerus 44.4023 -6.76827 36.1627
lradius 66.047
lwrist 6.02226
lhand -31.5595 -3.15633
lfingers 7.12502
lthumb -4.82343 26.7688
rfemur -43.2263 -11.2861 15.0672
rtibia 77.4436
rfoot -31.6256 -5.89476
rtoes -12.4828
lfemur -40.4218 16.6497 -11.8213
ltibia 77.3528
lfoot -30.2967 14.1856
ltoes -12.6482
134
root 0.382828 14.6091 4.48614 1.67179 -3.38734 -2.1383
lowerback 14.1696 0.220416 0.979759
upperback 9.32674 0.375619 1.91301
thorax 1.88924 0.166249 1.40008
lowerneck -11.6066 -0.157571 -1.9267
upperneck -7.95334 0.0585507 1.90186
head -0.562069 0.0806092 0.906719
rclavicle -3.18055e-015 -2.66371e-014
rhumerus 41.3355 7.33388 -31.6872
rradius 67.822
rwrist 21.7132
rhand -23.5021 -37.721
rfingers 7.12502
rthumb 2.95825 -67.6802
lclavicle -3.18055e-015 -2.66371e-014
lhumerus 44.4234 -6.75439 36.1586
lradius 66.0339
lwrist 5.99034
lhand -31.8584 -3.30993
lfingers 7.12502
lthumb -5.11198 26.6084
rfemur -43.2259 -11.2999 15.0731
rtibia 77.4516
rfoot -31.6336 -5.88902
rtoes -12.4443
lfemur -40.4203 16.652 -11.8148
ltibia 77.3604
lfoot -30.2976 14.1919
ltoes -12.6887
135
root 0.382242 14.6075 4.48498 1.68065 -3.37831 -2.14993
lowerback 14.1632 0.219486 0.990228
upperback 9.32718 0.375435 1.92313
thorax 1.89317 0.166335 1.40482
lowerneck -11.5725 -0.158997 -1.96856
upperneck -7.98733 0.0621319 1.93148
head -0.578106 0.0834589 0.92319
rclavicle 3.37934e-015 1.19271e-014
rhumerus 41.3275 7.32179 -31.679
rradius 67.8286
rwrist 21.7099
rhand -23.4649 -37.6694
rfingers 7.12502
rthumb 2.99409 -67.6282
lclavicle 3.37934e-015 1.19271e-014
lhumerus 44.4367 -6.73955 36.1646
lradius 66.0398
lwrist 6.00011
lhand -31.8857 -3.29885
lfingers 7.12502
lthumb -5.1384 26.6189
rfemur -43.2488 -11.3029 15.0925
rtibia 77.4641
rfoot -31.6581 -5.90035
rtoes -12.5118
lfemur -40.4551 16.649 -11.8032
ltibia 77.3776
lfoot -30.2993 14.1815
ltoes -12.6653
136
root 0.381997 14.6066 4.4854 1.66921 -3.39264 -2.15289
lowerback 14.1915 0.22443 1.00151
upperback 9.3048 0.384252 1.91716
thorax 1.85422 0.171435 1.39091
lowerneck -11.5343 -0.142621 -1.93021
upperneck -7.98667 0.0779916 1.89581
head -0.584331 0.090168 0.905844
rclavicle -6.55989e-015 -5.96354e-015
rhumerus 41.3005 7.33978 -31.6934
rradius 67.8422
rwrist 21.7017
rhand -23.4655 -37.6236
rfingers 7.12502
rthumb 2.99358 -67.5823
lclavicle -6.55989e-015 -5.96354e-015
lhumerus 44.3693 -6.75592 36.1824
lradius 66.0806
lwrist 6.03428
lhand -32.0583 -3.45932
lfingers 7.12502
lthumb -5.305 26.4543
rfemur -43.2352 -11.3013 15.0929
rtibia 77.4728
rfoot -31.6784 -5.87247
rtoes -12.4397
lfemur -40.4409 16.6667 -11.7934
ltibia 77.3907
lfoot -30.3026 14.2019
ltoes -12.6579
137
root 0.381915 14.6062 4.48555 1.68116 -3.3927 -2.16991
lowerback 14.1708 0.217798 1.01579
upperback 9.32287 0.37619 1.92166
thorax 1.88471 0.167839 1.38876
lowerneck -11.5915 -0.147991 -1.96159
upperneck -7.96309 0.076385 1.93837
head -0.567765 0.0905561 0.924622
rclavicle -7.55382e-015 -1.51076e-014
rhumerus 41.3391 7.31514 -31.6862
rradius 67.8282
rwrist 21.7001
rhand -23.4939 -37.6654
rfingers 7.12502
rthumb 2.96615 -67.6245
lclavicle -7.55382e-015 -1.51076e-014
lhumerus 44.4193 -6.70438 36.1643
lradius 66.0517
lwrist 6.02542
lhand -31.8605 -3.28963
lfingers 7.12502
lthumb -5.11404 26.6287
rfemur -43.2497 -11.3058 15.115
rtibia 77.4817
rfoot -31.6842 -5.88268
rtoes -12.4647
lfemur -40.4589 16.6736 -11.7775
ltibia 77.4059
lfoot -30.3121 14.2055
ltoes -12.6784
138
root 0.381256 14.6039 4.48509 1.69108 -3.39858 -2.16489
lowerback 14.156 0.225043 1.00486
upperback 9.3304 0.383989 1.92272
thorax 1.90035 0.171227 1.39516
lowerneck -11.6032 -0.149455 -1.95495
upperneck -7.97301 0.0735724 1.9257
head -0.569001 0.088987 0.919446
rclavicle -3.97569e-016 -5.1684e-015
rhumerus 41.357 7.28911 -31.6815
rradius 67.818
rwrist 21.6792
rhand -23.5305 -37.6995
rfingers 7.12502
rthumb 2.9308 -67.6591
lclavicle -3.97569e-016 -5.1684e-015
lhumerus 44.4526 -6.68042 36.169
lradius 66.0407
lwrist 6.02765
lhand -31.8725 -3.30953
lfingers 7.12502
lthumb -5.12558 26.6085
rfemur -43.2814 -11.3125 15.1146
rtibia 77.503
rfoot -31.6842 -5.86778
rtoes -12.4394
lfemur -40.4865 16.6842 -11.7827
ltibia 77.4277
lfoot -30.3199 14.1874
ltoes -12.5897
139
root 0.381577 14.6029 4.48521 1.68186 -3.39054 -2.14881
lowerback 14.1703 0.222154 0.994393
upperback 9.32785 0.379461 1.91928
thorax 1.89009 0.168618 1.39794
lowerneck -11.5917 -0.156671 -1.97792
upperneck -7.96662 0.0669648 1.94766
head -0.568611 0.0862864 0.930049
rclavicle -3.18055e-015 2.90226e-014
rhumerus 41.3464 7.28814 -31.6787
rradius 67.8333
rwrist 21.6791
rhand -23.5347 -37.7038
rfingers 7.12502
rthumb 2.92669 -67.6635
lclavicle -3.18055e-015 2.90226e-014
lhumerus 44.4721 -6.67014 36.1607
lradius 66.0255
lwrist 6.02326
lhand -31.9298 -3.38806
lfingers 7.12502
lthumb -5.18099 26.5286
rfemur -43.2756 -11.3372 15.0919
rtibia 77.5183
rfoot -31.674 -5.85778
rtoes -12.3365
lfemur -40.483 16.6693 -11.801
ltibia 77.4432
lfoot -30.3211 14.216
ltoes -12.6395
140
root 0.381341 14.6015 4.48483 1.68364 -3.385 -2.15377
lowerback 14.181 0.224039 1.00062
upperback 9.32194 0.383021 1.92372
thorax 1.87807 0.170565 1.39857
lowerneck -11.5716 -0.158793 -1.97116
upperneck -7.98093 0.0627865 1.93519
head -0.576237 0.0838836 0.924815
rclavicle 3.18055e-015 5.1684e-015
rhumerus 41.3477 7.27485 -31.6753
rradius 67.8315
rwrist 21.6685
rhand -23.5078 -37.6783
rfingers 7.12502
rthumb 2.95266 -67.6376
lclavicle 3.18055e-015 5.1684e-015
lhumerus 44.4657 -6.6593 36.196
lradius 66.0329
lwrist 6.00011
lhand -31.9134 -3.36244
lfingers 7.12502
lthumb -5.16513 26.5546
rfemur -43.2888 -11.3465 15.0988
rtibia 77.5381
rfoot -31.7059 -5.86349
rtoes -12.5113
lfemur -40.4969 16.664 -11.7948
ltibia 77.4632
lfoot -30.3437 14.2045
ltoes -12.58
141
root 0.380518 14.5991 4.48555 1.66721 -3.40604 -2.17387
lowerback 14.1688 0.237835 1.02141
upperback 9.3468 0.402437 1.91484
thorax 1.91099 0.181386 1.37544
lowerneck -11.6623 -0.158508 -1.9176
upperneck -7.8826 0.0570996 1.91542
head -0.531018 0.0800362 0.90951
rclavicle -2.78299e-015 1.35174e-014
rhumerus 41.3317 7.23455 -31.6915
rradius 67.7816
rwrist 21.6756
rhand -23.8952 -37.9704
rfingers 7.12502
rthumb 2.57857 -67.9346
lclavicle -2.78299e-015 1.35174e-014
lhumerus 44.6459 -6.6328 36.1624
lradius 65.9216
lwrist 6.00577
lhand -32.0984 -3.48742
lfingers 7.12502
lthumb -5.34374 26.4252
rfemur -43.2829 -11.3271 15.121
rtibia 77.5584
rfoot -31.7251 -5.86464
rtoes -12.4177
lfemur -40.4745 16.6927 -11.7579
ltibia 77.484
lfoot -30.3401 14.2369
ltoes -12.6261
142
root 0.380293 14.5964 4.48529 1.66273 -3.39802 -2.19204
lowerback 14.1916 0.227711 1.02883
upperback 9.33682 0.390688 1.93261
thorax 1.88844 0.175294 1.39114
lowerneck -11.8274 -0.131584 -2.18085
upperneck -7.69147 0.132256 2.17349
head -0.445452 0.126635 1.03857
rclavicle 8.94531e-015 2.78299e-014
rhumerus 41.3762 7.24119 -31.6871
rradius 67.8068
rwrist 21.6763
rhand -23.4976 -37.641
rfingers 7.12502
rthumb 2.96252 -67.6002
lclavicle 8.94531e-015 2.78299e-014
lhumerus 44.5239 -6.62669 36.1862
lradius 66.0002
lwrist 6.00472
lhand -31.9236 -3.42841
lfingers 7.12502
lthumb -5.17499 26.4884
rfemur -43.2889 -11.3353 15.1405
rtibia 77.5828
rfoot -31.7308 -5.88116
rtoes -12.5369
lfemur -40.4873 16.6811 -11.7317
ltibia 77.5127
lfoot -30.3708 14.2128
ltoes -12.5766
143
root 0.380049 14.5944 4.48667 1.64528 -3.39976 -2.19268
lowerback 14.1878 0.224826 1.0176
upperback 9.33709 0.385562 1.94268
thorax 1.89072 0.171928 1.40863
lowerneck -11.5598 -0.153808 -1.99355
upperneck -7.94241 0.0719957 1.95423
head -0.566131 0.0891141 0.934858
rclavicle 4.17448e-015 2.06736e-014
rhumerus 41.3815 7.2609 -31.6685
rradius 67.8037
rwrist 21.6768
rhand -23.4754 -37.6058
rfingers 7.12502
rthumb 2.98401 -67.5646
lclavicle 4.17448e-015 2.06736e-014
lhumerus 44.5071 -6.61377 36.1935
lradius 65.9946
lwrist 6.0231
lhand -31.846 -3.314
lfingers 7.12502
lthumb -5.10003 26.6046
rfemur -43.2766 -11.3391 15.1373
rtibia 77.6054
rfoot -31.7473 -5.88033
rtoes -12.519
lfemur -40.4739 16.6847 -11.7238
ltibia 77.5357
lfoot -30.3815 14.2266
ltoes -12.5807
